<svg width="4029" height="2067" xmlns="http://www.w3.org/2000/svg" xmlns:xlink="http://www.w3.org/1999/xlink" xml:space="preserve" overflow="hidden"><defs><clipPath id="clip0"><rect x="146" y="151" width="4029" height="2067"/></clipPath><clipPath id="clip1"><rect x="150" y="165" width="279" height="267"/></clipPath><clipPath id="clip2"><rect x="150" y="165" width="279" height="267"/></clipPath><clipPath id="clip3"><rect x="150" y="165" width="279" height="267"/></clipPath><clipPath id="clip4"><rect x="643" y="1306" width="221" height="212"/></clipPath><clipPath id="clip5"><rect x="643" y="1306" width="221" height="212"/></clipPath><clipPath id="clip6"><rect x="643" y="1306" width="221" height="212"/></clipPath><clipPath id="clip7"><rect x="643" y="1097" width="221" height="212"/></clipPath><clipPath id="clip8"><rect x="643" y="1097" width="221" height="212"/></clipPath><clipPath id="clip9"><rect x="643" y="1097" width="221" height="212"/></clipPath><clipPath id="clip10"><rect x="429" y="899" width="248" height="240"/></clipPath><clipPath id="clip11"><rect x="429" y="899" width="248" height="240"/></clipPath><clipPath id="clip12"><rect x="429" y="899" width="248" height="240"/></clipPath><clipPath id="clip13"><rect x="431" y="1651" width="247" height="238"/></clipPath><clipPath id="clip14"><rect x="431" y="1651" width="247" height="238"/></clipPath><clipPath id="clip15"><rect x="431" y="1651" width="247" height="238"/></clipPath><clipPath id="clip16"><rect x="2316" y="621" width="231" height="221"/></clipPath><clipPath id="clip17"><rect x="2316" y="621" width="231" height="221"/></clipPath><clipPath id="clip18"><rect x="2316" y="621" width="231" height="221"/></clipPath><clipPath id="clip19"><rect x="2623" y="621" width="229" height="221"/></clipPath><clipPath id="clip20"><rect x="2623" y="621" width="229" height="221"/></clipPath><clipPath id="clip21"><rect x="2623" y="621" width="229" height="221"/></clipPath><clipPath id="clip22"><rect x="2926" y="365" width="248" height="238"/></clipPath><clipPath id="clip23"><rect x="2926" y="365" width="248" height="238"/></clipPath><clipPath id="clip24"><rect x="2926" y="365" width="248" height="238"/></clipPath><clipPath id="clip25"><rect x="3131" y="613" width="230" height="220"/></clipPath><clipPath id="clip26"><rect x="3131" y="613" width="230" height="220"/></clipPath><clipPath id="clip27"><rect x="3131" y="613" width="230" height="220"/></clipPath><clipPath id="clip28"><rect x="3131" y="876" width="230" height="220"/></clipPath><clipPath id="clip29"><rect x="3131" y="876" width="230" height="220"/></clipPath><clipPath id="clip30"><rect x="3131" y="876" width="230" height="220"/></clipPath><clipPath id="clip31"><rect x="2926" y="1190" width="248" height="238"/></clipPath><clipPath id="clip32"><rect x="2926" y="1190" width="248" height="238"/></clipPath><clipPath id="clip33"><rect x="2926" y="1190" width="248" height="238"/></clipPath><clipPath id="clip34"><rect x="2623" y="1222" width="229" height="219"/></clipPath><clipPath id="clip35"><rect x="2623" y="1222" width="229" height="219"/></clipPath><clipPath id="clip36"><rect x="2623" y="1222" width="229" height="219"/></clipPath><clipPath id="clip37"><rect x="3054" y="1425" width="230" height="220"/></clipPath><clipPath id="clip38"><rect x="3054" y="1425" width="230" height="220"/></clipPath><clipPath id="clip39"><rect x="3054" y="1425" width="230" height="220"/></clipPath><clipPath id="clip40"><rect x="2317" y="165" width="278" height="267"/></clipPath><clipPath id="clip41"><rect x="2317" y="165" width="278" height="267"/></clipPath><clipPath id="clip42"><rect x="2317" y="165" width="278" height="267"/></clipPath><clipPath id="clip43"><rect x="631" y="1874" width="233" height="224"/></clipPath><clipPath id="clip44"><rect x="631" y="1874" width="233" height="224"/></clipPath><clipPath id="clip45"><rect x="631" y="1874" width="233" height="224"/></clipPath></defs><g clip-path="url(#clip0)" transform="translate(-146 -151)"><path d="M0.00505696-3.4375 633.717-2.50523 633.707 4.36976-0.00505696 3.4375ZM607.98-18.1165 640.542 0.942313 607.924 19.9053C606.283 20.8594 604.179 20.3024 603.225 18.6612 602.271 17.0199 602.827 14.9159 604.469 13.9617L631.992-2.03951 631.984 3.89897 604.507-12.1831C602.869-13.1421 602.318-15.2478 603.277-16.8863 604.236-18.5247 606.342-19.0755 607.98-18.1165Z" fill="#4472C4" fill-rule="nonzero" fill-opacity="1" transform="matrix(1 0 0 -1 1679.5 740.442)"/><path d="M2801.5 731.5 3173.33 731.5" stroke="#4472C4" stroke-width="6.875" stroke-linecap="butt" stroke-linejoin="miter" stroke-miterlimit="8" stroke-opacity="1" fill="none" fill-rule="evenodd"/><rect x="3244" y="1477" width="760" height="134" stroke="#404040" stroke-width="10.3125" stroke-linecap="butt" stroke-linejoin="round" stroke-miterlimit="10" stroke-opacity="1" fill="#FFFFFF" fill-opacity="1"/><text fill="#000000" fill-opacity="1" font-family="Arial,Arial_MSFontService,sans-serif" font-style="normal" font-variant="normal" font-weight="400" font-stretch="normal" font-size="83" text-anchor="start" direction="ltr" writing-mode="lr-tb" unicode-bidi="normal" text-decoration="none" transform="matrix(1 0 0 1 3282.48 1574)">Container Registry</text><path d="M3017 1340C3017 1302.44 3047.45 1272 3085 1272L3990 1272C4027.55 1272 4058 1302.44 4058 1340L4058 1612C4058 1649.55 4027.55 1680 3990 1680L3085 1680C3047.45 1680 3017 1649.55 3017 1612Z" stroke="#BFBFBF" stroke-width="10.3125" stroke-linecap="butt" stroke-linejoin="miter" stroke-miterlimit="8" stroke-dasharray="41.25 30.9375" stroke-opacity="1" fill="none" fill-rule="evenodd"/><path d="M3037 550.002C3037 481.518 3092.52 426 3161 426L3954 426C4022.48 426 4078 481.518 4078 550.002L4078 1046C4078 1114.48 4022.48 1170 3954 1170L3161 1170C3092.52 1170 3037 1114.48 3037 1046Z" stroke="#BFBFBF" stroke-width="10.3125" stroke-linecap="butt" stroke-linejoin="miter" stroke-miterlimit="8" stroke-dasharray="41.25 30.9375" stroke-opacity="1" fill="none" fill-rule="evenodd"/><rect x="3272" y="924" width="720" height="133" stroke="#262626" stroke-width="10.3125" stroke-linecap="butt" stroke-linejoin="round" stroke-miterlimit="10" stroke-opacity="1" fill="#FFF2CC" fill-opacity="1"/><text fill="#000000" fill-opacity="1" font-family="Arial,Arial_MSFontService,sans-serif" font-style="normal" font-variant="normal" font-weight="400" font-stretch="normal" font-size="83" text-anchor="start" direction="ltr" writing-mode="lr-tb" unicode-bidi="normal" text-decoration="none" transform="matrix(1 0 0 1 3391.31 1020)">Metadata DB</text><rect x="797" y="1151" width="755" height="133" stroke="#262626" stroke-width="10.3125" stroke-linecap="butt" stroke-linejoin="round" stroke-miterlimit="10" stroke-opacity="1" fill="#FFF2CC" fill-opacity="1"/><text fill="#000000" fill-opacity="1" font-family="Arial,Arial_MSFontService,sans-serif" font-style="normal" font-variant="normal" font-weight="400" font-stretch="normal" font-size="83" text-anchor="start" direction="ltr" writing-mode="lr-tb" unicode-bidi="normal" text-decoration="none" transform="matrix(1 0 0 1 855.936 1248)">Starlight CLI Tool</text><path d="M2432 371.033C2432 327.384 2467.38 292 2511.03 292L4089.97 292C4133.62 292 4169 327.384 4169 371.033L4169 1681.97C4169 1725.62 4133.62 1761 4089.97 1761L2511.03 1761C2467.38 1761 2432 1725.62 2432 1681.97Z" stroke="#BFBFBF" stroke-width="10.3125" stroke-linecap="butt" stroke-linejoin="miter" stroke-miterlimit="8" stroke-opacity="1" fill="none" fill-rule="evenodd"/><path d="M231 370.94C231 322.925 269.925 284 317.941 284L1760.06 284C1808.08 284 1847 322.925 1847 370.94L1847 2124.06C1847 2172.08 1808.08 2211 1760.06 2211L317.941 2211C269.925 2211 231 2172.08 231 2124.06Z" stroke="#BFBFBF" stroke-width="10.3125" stroke-linecap="butt" stroke-linejoin="miter" stroke-miterlimit="8" stroke-opacity="1" fill="none" fill-rule="evenodd"/><g clip-path="url(#clip1)"><g clip-path="url(#clip2)"><g clip-path="url(#clip3)"><path d="M-105.628 65.89C-107.924 66.0056-110.172 66.5747-112.243 67.5638L-202.498 110.689C-207.231 112.949-210.668 117.223-211.837 122.301L-234.104 219.171C-235.142 223.681-234.297 228.415-231.76 232.296-231.456 232.766-231.128 233.22-230.779 233.658L-168.308 311.332C-165.032 315.403-160.066 317.774-154.814 317.773L-54.6309 317.75C-49.3811 317.754-44.4149 315.387-41.1369 311.32L21.3115 233.635C24.5889 229.562 25.8168 224.229 24.6474 219.148L2.3461 122.278C1.1769 117.2-2.26019 112.926-6.99231 110.666L-97.2597 67.5638C-99.8639 66.3196-102.742 65.744-105.628 65.89Z" fill="#326CE5" fill-rule="nonzero" fill-opacity="1" transform="matrix(1.01437 0 0 1 396.232 106.182)"/><path d="M-105.677 58.8756C-108.097 59.0024-110.467 59.6067-112.649 60.6533L-207.938 106.168C-212.933 108.554-216.561 113.066-217.795 118.427L-241.297 220.687C-242.397 225.45-241.506 230.451-238.827 234.551-238.504 235.044-238.158 235.522-237.788 235.982L-171.842 317.984C-168.384 322.282-163.142 324.784-157.598 324.783L-51.8398 324.76C-46.298 324.764-41.0558 322.266-37.5955 317.973L28.3273 235.959C31.7838 231.661 33.0795 226.036 31.848 220.676L8.3116 118.404C7.07421 113.047 3.44639 108.54-1.54623 106.156L-96.8348 60.6417C-99.5864 59.3274-102.627 58.72-105.677 58.8756ZM-105.631 65.8939C-102.744 65.7479-99.8663 66.3234-97.262 67.5676L-6.99465 110.67C-2.26252 112.93 1.1746 117.204 2.34381 122.282L24.6452 219.152C25.8145 224.233 24.5866 229.565 21.3092 233.639L-41.1392 311.324C-44.4172 315.391-49.3833 317.757-54.6331 317.754L-154.816 317.777C-160.068 317.778-165.034 315.407-168.31 311.336L-230.781 233.662C-231.131 233.224-231.458 232.77-231.763 232.3-234.299 228.419-235.145 223.685-234.106 219.175L-211.839 122.305C-210.67 117.227-207.233 112.953-202.501 110.693L-112.245 67.5677C-110.175 66.5786-107.926 66.0096-105.631 65.894Z" fill="#FFFFFF" fill-rule="nonzero" fill-opacity="1" transform="matrix(1.01437 0 0 1 396.232 106.182)"/><text fill="#FFFFFF" fill-opacity="1" font-family="Arial,Arial_MSFontService,sans-serif" font-style="normal" font-variant="normal" font-weight="400" font-stretch="normal" font-size="3" text-anchor="start" direction="ltr" writing-mode="lr-tb" unicode-bidi="normal" text-decoration="none" transform="matrix(15.4142 0 0 15.1958 235.53 403)">node</text><path d="M151.839 62.2153C149.737 62.1485 91.1302 90.9638 90.3639 92.4415 88.5226 95.9925 75.1848 157.507 75.9688 158.833 76.4247 159.603 86.0313 171.778 97.3125 185.886L117.824 211.537 151.577 211.551 185.336 211.565 206.811 184.734 228.292 157.91 220.774 124.957C216.638 106.832 212.938 91.6989 212.56 91.3343 211.504 90.318 152.978 62.2527 151.839 62.216ZM154.819 76.6171 168.631 80.6224 154.819 84.6276 141.008 80.6224ZM141.008 82.1563 153.941 86.0043 153.88 103.985 141.012 96.8532ZM168.631 82.1563 168.631 96.8532 155.764 103.985 155.703 86.0043ZM135.239 106.693 149.051 110.698 135.239 114.703 121.427 110.698ZM168.802 106.693 182.614 110.698 168.802 114.703 154.99 110.698ZM121.427 112.232 134.36 116.073 134.3 134.054 121.432 126.929ZM149.051 112.232 149.051 126.929 136.183 134.054 136.122 116.073ZM154.99 112.232 167.923 116.073 167.863 134.054 154.995 126.929ZM182.614 112.232 182.614 126.929 169.746 134.054 169.685 116.073ZM130.194 135.254C134.306 135.4 131.122 139.538 135.792 141.757 140.772 144.124 141.8 138.18 144.93 142.72 148.06 147.26 142.143 146.112 142.583 151.609 143.024 157.106 148.686 155.026 146.319 160.006 143.953 164.987 141.984 159.282 137.444 162.412 132.904 165.542 137.535 169.405 132.042 169.846 126.545 170.286 130.5 165.736 125.52 163.369 120.539 161.002 119.511 166.939 116.382 162.399 113.252 157.859 119.175 159.013 118.735 153.516 118.294 148.02 112.631 150.1 114.999 145.119 117.365 140.139 119.328 145.843 123.868 142.713 128.408 139.584 123.776 135.72 129.276 135.28 129.618 135.252 129.92 135.245 130.194 135.252ZM165.69 140.767C173.035 140.973 165.912 147.866 172.619 150.868 179.327 153.87 179.717 143.968 184.766 149.308 189.814 154.648 179.904 154.484 182.524 161.35 185.144 168.216 192.426 161.49 192.219 168.836 192.011 176.182 185.119 169.057 182.118 175.765 179.116 182.473 189.018 182.864 183.678 187.912 178.338 192.96 178.508 183.05 171.642 185.67 164.776 188.29 171.505 195.572 164.156 195.365 156.811 195.159 163.934 188.266 157.227 185.264 150.52 182.262 150.122 192.164 145.074 186.824 140.026 181.484 149.936 181.654 147.316 174.788 144.695 167.923 137.414 174.649 137.621 167.302 137.829 159.957 144.72 167.074 147.722 160.367 150.724 153.659 140.822 153.268 146.162 148.22 151.503 143.172 151.338 153.082 158.204 150.462 165.07 147.842 158.341 140.56 165.69 140.767ZM130.515 144.621C126.053 144.623 122.437 148.242 122.439 152.704 122.44 157.163 126.055 160.778 130.515 160.78 134.977 160.782 138.596 157.166 138.597 152.704 138.6 148.239 134.98 144.619 130.515 144.621ZM164.923 151.924C156.005 151.921 148.775 159.151 148.778 168.069 148.778 176.985 156.008 184.211 164.923 184.208 173.836 184.207 181.061 176.982 181.062 168.069 181.065 159.154 173.839 151.925 164.923 151.924Z" fill="#FFFFFF" fill-rule="nonzero" fill-opacity="1" transform="matrix(1.01437 0 0 1 135.699 147.192)"/></g></g></g><g clip-path="url(#clip4)"><g clip-path="url(#clip5)"><g clip-path="url(#clip6)"><path d="M-83.788 52.2661C-85.6085 52.3579-87.3923 52.8092-89.0346 53.5938L-160.629 87.8021C-164.382 89.5948-167.109 92.9851-168.036 97.0135L-185.699 173.854C-186.523 177.431-185.852 181.186-183.84 184.265-183.598 184.637-183.339 184.998-183.062 185.345L-133.507 246.959C-130.909 250.188-126.969 252.069-122.803 252.068L-43.335 252.05C-39.1707 252.053-35.2314 250.176-32.6312 246.95L16.905 185.327C19.5047 182.096 20.4788 177.866 19.5512 173.836L1.861 96.9952C0.933555 92.9668-1.79286 89.5765-5.54653 87.7838L-77.1496 53.5938C-79.2154 52.6069-81.498 52.1504-83.788 52.2661Z" fill="#326CE5" fill-rule="nonzero" fill-opacity="1" transform="matrix(1.01199 0 0 1 837.069 1260.34)"/><path d="M-83.8264 46.7021C-85.7461 46.8027-87.6263 47.282-89.3569 48.1122L-164.943 84.2159C-168.905 86.1084-171.784 89.6874-172.763 93.94L-191.405 175.057C-192.277 178.834-191.571 182.801-189.446 186.053-189.19 186.445-188.915 186.824-188.621 187.189L-136.311 252.236C-133.568 255.645-129.409 257.63-125.012 257.629L-41.121 257.611C-36.7251 257.614-32.5668 255.632-29.822 252.227L22.4702 187.17C25.2119 183.761 26.2398 179.299 25.2629 175.047L6.59304 93.9217C5.61149 89.6726 2.73379 86.0973-1.22652 84.2067L-76.8126 48.103C-78.9952 47.0604-81.4071 46.5787-83.8264 46.7021ZM-83.7898 52.2692C-81.4999 52.1534-79.2172 52.6099-77.1515 53.5969L-5.54839 87.7869C-1.7947 89.5795 0.931729 92.9698 1.85919 96.9982L19.5494 173.839C20.4769 177.869 19.5029 182.099 16.9032 185.33L-32.633 246.953C-35.2332 250.179-39.1725 252.056-43.3368 252.053L-122.805 252.071C-126.971 252.072-130.911 250.191-133.509 246.962L-183.064 185.348C-183.341 185.001-183.6 184.641-183.842 184.268-185.854 181.189-186.525 177.434-185.701 173.857L-168.038 97.0166C-167.11 92.9882-164.384 89.5979-160.63 87.8053L-89.0364 53.597C-87.3941 52.8124-85.6103 52.361-83.7898 52.2693Z" fill="#FFFFFF" fill-rule="nonzero" fill-opacity="1" transform="matrix(1.01199 0 0 1 837.069 1260.34)"/><text fill="#FFFFFF" fill-opacity="1" font-family="Arial,Arial_MSFontService,sans-serif" font-style="normal" font-variant="normal" font-weight="400" font-stretch="normal" font-size="3" text-anchor="start" direction="ltr" writing-mode="lr-tb" unicode-bidi="normal" text-decoration="none" transform="matrix(12.1983 0 0 12.0538 722.589 1496)">pod</text><path d="M75.4783 84.8115 119.123 72.155 162.768 84.8115 119.123 97.4679Z" fill="#FFFFFF" fill-rule="evenodd" fill-opacity="1" transform="matrix(1.01199 0 0 1 632.449 1292.87)"/><path d="M75.4783 89.6581 75.4783 136.099 116.143 158.624 116.344 101.812Z" fill="#FFFFFF" fill-rule="evenodd" fill-opacity="1" transform="matrix(1.01199 0 0 1 632.449 1292.87)"/><path d="M162.768 89.6581 162.768 136.099 122.103 158.624 121.902 101.812Z" fill="#FFFFFF" fill-rule="evenodd" fill-opacity="1" transform="matrix(1.01199 0 0 1 632.449 1292.87)"/></g></g></g><g clip-path="url(#clip7)"><g clip-path="url(#clip8)"><g clip-path="url(#clip9)"><path d="M-83.788 52.2661C-85.6085 52.3579-87.3923 52.8092-89.0346 53.5938L-160.629 87.8021C-164.382 89.5948-167.109 92.9851-168.036 97.0135L-185.699 173.854C-186.523 177.431-185.852 181.186-183.84 184.265-183.598 184.637-183.339 184.998-183.062 185.345L-133.507 246.959C-130.909 250.188-126.969 252.069-122.803 252.068L-43.335 252.05C-39.1707 252.053-35.2314 250.176-32.6312 246.95L16.905 185.327C19.5047 182.096 20.4788 177.866 19.5512 173.836L1.861 96.9952C0.933555 92.9668-1.79286 89.5765-5.54653 87.7838L-77.1496 53.5938C-79.2154 52.6069-81.498 52.1504-83.788 52.2661Z" fill="#326CE5" fill-rule="nonzero" fill-opacity="1" transform="matrix(1.01199 0 0 1 837.069 1051.34)"/><path d="M-83.8264 46.7021C-85.7461 46.8027-87.6263 47.282-89.3569 48.1122L-164.943 84.2159C-168.905 86.1084-171.784 89.6874-172.763 93.94L-191.405 175.057C-192.277 178.834-191.571 182.801-189.446 186.053-189.19 186.445-188.915 186.824-188.621 187.189L-136.311 252.236C-133.568 255.645-129.409 257.63-125.012 257.629L-41.121 257.611C-36.7251 257.614-32.5668 255.632-29.822 252.227L22.4702 187.17C25.2119 183.761 26.2398 179.299 25.2629 175.047L6.59304 93.9217C5.61149 89.6726 2.73379 86.0973-1.22652 84.2067L-76.8126 48.103C-78.9952 47.0604-81.4071 46.5787-83.8264 46.7021ZM-83.7898 52.2692C-81.4999 52.1534-79.2172 52.6099-77.1515 53.5969L-5.54839 87.7869C-1.7947 89.5795 0.931729 92.9698 1.85919 96.9982L19.5494 173.839C20.4769 177.869 19.5029 182.099 16.9032 185.33L-32.633 246.953C-35.2332 250.179-39.1725 252.056-43.3368 252.053L-122.805 252.071C-126.971 252.072-130.911 250.191-133.509 246.962L-183.064 185.348C-183.341 185.001-183.6 184.641-183.842 184.268-185.854 181.189-186.525 177.434-185.701 173.857L-168.038 97.0166C-167.11 92.9882-164.384 89.5979-160.63 87.8053L-89.0364 53.597C-87.3941 52.8124-85.6103 52.361-83.7898 52.2693Z" fill="#FFFFFF" fill-rule="nonzero" fill-opacity="1" transform="matrix(1.01199 0 0 1 837.069 1051.34)"/><text fill="#FFFFFF" fill-opacity="1" font-family="Arial,Arial_MSFontService,sans-serif" font-style="normal" font-variant="normal" font-weight="400" font-stretch="normal" font-size="3" text-anchor="start" direction="ltr" writing-mode="lr-tb" unicode-bidi="normal" text-decoration="none" transform="matrix(12.1983 0 0 12.0538 722.589 1287)">pod</text><path d="M75.4783 84.8115 119.123 72.155 162.768 84.8115 119.123 97.4679Z" fill="#FFFFFF" fill-rule="evenodd" fill-opacity="1" transform="matrix(1.01199 0 0 1 632.449 1083.87)"/><path d="M75.4783 89.6581 75.4783 136.099 116.143 158.624 116.344 101.812Z" fill="#FFFFFF" fill-rule="evenodd" fill-opacity="1" transform="matrix(1.01199 0 0 1 632.449 1083.87)"/><path d="M162.768 89.6581 162.768 136.099 122.103 158.624 121.902 101.812Z" fill="#FFFFFF" fill-rule="evenodd" fill-opacity="1" transform="matrix(1.01199 0 0 1 632.449 1083.87)"/></g></g></g><path d="M512 1081C512 1026.88 555.877 983 610.002 983L1632 983C1686.12 983 1730 1026.88 1730 1081L1730 1473C1730 1527.12 1686.12 1571 1632 1571L610.002 1571C555.877 1571 512 1527.12 512 1473Z" stroke="#BFBFBF" stroke-width="10.3125" stroke-linecap="butt" stroke-linejoin="miter" stroke-miterlimit="8" stroke-dasharray="41.25 30.9375" stroke-opacity="1" fill="none" fill-rule="evenodd"/><text fill="#000000" fill-opacity="1" font-family="Arial,Arial_MSFontService,sans-serif" font-style="normal" font-variant="normal" font-weight="400" font-stretch="normal" font-size="83" text-anchor="start" direction="ltr" writing-mode="lr-tb" unicode-bidi="normal" text-decoration="none" transform="matrix(1 0 0 1 886.438 1456)">Application Container</text><g clip-path="url(#clip10)"><g clip-path="url(#clip11)"><g clip-path="url(#clip12)"><path d="M-94.5097 58.9543C-96.5632 59.0577-98.5753 59.5669-100.428 60.4518L-181.183 99.0376C-185.417 101.06-188.492 104.884-189.538 109.428L-209.461 196.101C-210.391 200.135-209.634 204.371-207.365 207.844-207.092 208.264-206.799 208.671-206.487 209.063L-150.591 278.56C-147.66 282.203-143.217 284.324-138.518 284.323L-48.8803 284.303C-44.1831 284.306-39.7397 282.189-36.8068 278.55L19.0682 209.042C22.0006 205.397 23.0993 200.626 22.053 196.08L2.09914 109.407C1.05302 104.863-2.02228 101.039-6.25628 99.0169L-87.0219 60.4518C-89.352 59.3386-91.9267 58.8237-94.5097 58.9543Z" fill="#326CE5" fill-rule="nonzero" fill-opacity="1" transform="matrix(1.00729 0 0 1 646.886 847.374)"/><path d="M-94.5531 52.6782C-96.7184 52.7917-98.8392 53.3324-100.791 54.2688L-186.05 94.9924C-190.519 97.1271-193.765 101.164-194.87 105.961L-215.898 197.457C-216.882 201.718-216.085 206.193-213.688 209.861-213.399 210.303-213.089 210.73-212.758 211.142L-153.754 284.513C-150.66 288.358-145.969 290.597-141.009 290.596L-46.383 290.575C-41.4246 290.579-36.7342 288.344-33.6381 284.502L25.3455 211.121C28.4381 207.276 29.5975 202.243 28.4956 197.447L7.4367 105.94C6.32956 101.147 3.08361 97.1146-1.38347 94.9821L-86.6418 54.2584C-89.1037 53.0824-91.8241 52.539-94.5531 52.6782ZM-94.5118 58.9577C-91.9288 58.8271-89.3541 59.3421-87.024 60.4553L-6.25838 99.0203C-2.02436 101.042 1.05096 104.867 2.09709 109.41L22.0509 196.084C23.0972 200.63 21.9985 205.401 19.0661 209.045L-36.8088 278.553C-39.7417 282.192-44.1851 284.31-48.8823 284.306L-138.52 284.327C-143.219 284.328-147.662 282.207-150.593 278.564L-206.489 209.066C-206.801 208.674-207.094 208.268-207.367 207.847-209.636 204.375-210.393 200.139-209.463 196.104L-189.54 109.431C-188.494 104.887-185.419 101.063-181.185 99.0411L-100.43 60.4554C-98.5773 59.5704-96.5653 59.0612-94.5118 58.9578Z" fill="#FFFFFF" fill-rule="nonzero" fill-opacity="1" transform="matrix(1.00729 0 0 1 646.886 847.374)"/><text fill="#FFFFFF" fill-opacity="1" font-family="Arial,Arial_MSFontService,sans-serif" font-style="normal" font-variant="normal" font-weight="400" font-stretch="normal" font-size="3" text-anchor="start" direction="ltr" writing-mode="lr-tb" unicode-bidi="normal" text-decoration="none" transform="matrix(13.6953 0 0 13.5962 490.38 1113)">deploy</text><path d="M139.022 186.698 139.022 186.698C105.812 188.269 77.5666 162.725 75.8036 129.524 74.0403 96.323 99.421 67.9307 132.611 65.9754 165.801 64.0201 194.34 89.2359 196.487 122.414L172.598 123.96C171.301 103.922 154.064 88.6927 134.019 89.8736 113.973 91.0545 98.6445 108.202 99.7094 128.254 100.774 148.306 117.833 163.734 137.891 162.785Z" fill="#FFFFFF" fill-rule="evenodd" fill-opacity="1" transform="matrix(1.00729 0 0 1 406.451 884.066)"/><path d="M151.402 122.486 170.402 168.992 214.267 122.486Z" fill="#FFFFFF" fill-rule="evenodd" fill-opacity="1" transform="matrix(1.00729 0 0 1 406.451 884.066)"/></g></g></g><rect x="799" y="1931" width="754" height="134" stroke="#262626" stroke-width="10.3125" stroke-linecap="butt" stroke-linejoin="round" stroke-miterlimit="10" stroke-opacity="1" fill="#FFF2CC" fill-opacity="1"/><text fill="#000000" fill-opacity="1" font-family="Arial,Arial_MSFontService,sans-serif" font-style="normal" font-variant="normal" font-weight="400" font-stretch="normal" font-size="83" text-anchor="start" direction="ltr" writing-mode="lr-tb" unicode-bidi="normal" text-decoration="none" transform="matrix(1 0 0 1 857.513 2028)">Starlight CLI Tool</text><path d="M514 1787.17C514 1748.42 545.415 1717 584.168 1717L1660.83 1717C1699.58 1717 1731 1748.42 1731 1787.17L1731 2067.83C1731 2106.58 1699.58 2138 1660.83 2138L584.168 2138C545.415 2138 514 2106.58 514 2067.83Z" stroke="#BFBFBF" stroke-width="10.3125" stroke-linecap="butt" stroke-linejoin="miter" stroke-miterlimit="8" stroke-dasharray="41.25 30.9375" stroke-opacity="1" fill="none" fill-rule="evenodd"/><g clip-path="url(#clip13)"><g clip-path="url(#clip14)"><g clip-path="url(#clip15)"><path d="M-94.5096 58.9542C-96.5631 59.0576-98.5751 59.5668-100.428 60.4518L-181.183 99.0374C-185.417 101.059-188.492 104.884-189.538 109.427L-209.461 196.101C-210.39 200.135-209.634 204.371-207.364 207.844-207.092 208.264-206.799 208.67-206.486 209.062L-150.591 278.56C-147.66 282.203-143.216 284.324-138.517 284.323L-48.8802 284.302C-44.183 284.306-39.7396 282.188-36.8067 278.549L19.0681 209.042C22.0006 205.397 23.0992 200.626 22.0529 196.08L2.09914 109.407C1.05301 104.863-2.02228 101.039-6.25627 99.0167L-87.0217 60.4518C-89.3519 59.3385-91.9266 58.8236-94.5096 58.9542Z" fill="#326CE5" fill-rule="nonzero" fill-opacity="1" transform="matrix(1.00729 0 0 1 648.886 1598.37)"/><path d="M-94.5529 52.6782C-96.7183 52.7916-98.8391 53.3323-100.791 54.2687L-186.049 94.9922C-190.519 97.1269-193.765 101.164-194.869 105.961L-215.897 197.457C-216.882 201.718-216.084 206.193-213.687 209.861-213.399 210.303-213.088 210.73-212.758 211.142L-153.753 284.512C-150.66 288.357-145.969 290.596-141.009 290.595L-46.3829 290.575C-41.4245 290.578-36.7341 288.343-33.6381 284.502L25.3455 211.121C28.4381 207.275 29.5974 202.243 28.4956 197.447L7.43669 105.94C6.32955 101.147 3.08361 97.1144-1.38346 94.9819L-86.6416 54.2584C-89.1035 53.0823-91.824 52.5389-94.5529 52.6782ZM-94.5117 58.9576C-91.9287 58.827-89.354 59.342-87.0238 60.4552L-6.25837 99.0202C-2.02436 101.042 1.05095 104.866 2.09709 109.41L22.0509 196.083C23.0972 200.629 21.9985 205.4 19.0661 209.045L-36.8087 278.553C-39.7416 282.192-44.1851 284.309-48.8822 284.306L-138.52 284.326C-143.218 284.327-147.662 282.206-150.593 278.563L-206.489 209.066C-206.801 208.674-207.094 208.267-207.366 207.847-209.636 204.374-210.392 200.139-209.463 196.104L-189.54 109.431C-188.494 104.887-185.419 101.063-181.185 99.0409L-100.43 60.4553C-98.5771 59.5703-96.5651 59.0612-94.5116 58.9577Z" fill="#FFFFFF" fill-rule="nonzero" fill-opacity="1" transform="matrix(1.00729 0 0 1 648.886 1598.37)"/><text fill="#FFFFFF" fill-opacity="1" font-family="Arial,Arial_MSFontService,sans-serif" font-style="normal" font-variant="normal" font-weight="400" font-stretch="normal" font-size="3" text-anchor="start" direction="ltr" writing-mode="lr-tb" unicode-bidi="normal" text-decoration="none" transform="matrix(13.6953 0 0 13.5962 534.042 1864)">ds</text><path d="M104.804 71.8257 193.519 71.8257 193.519 134.142 104.804 134.142Z" stroke="#FFFFFF" stroke-width="7.19437" stroke-linecap="square" stroke-linejoin="round" stroke-miterlimit="10" stroke-dasharray="21.5831 21.5831" stroke-opacity="1" fill="none" fill-rule="evenodd" transform="matrix(1.00729 0 0 1 425.435 1635.07)"/><path d="M59.1458 185 155.333 185" stroke="#FFFFFF" stroke-width="8.40694" stroke-linecap="butt" stroke-linejoin="miter" stroke-miterlimit="4" stroke-opacity="1" fill="none" fill-rule="evenodd" transform="matrix(1.00729 0 0 1 425.435 1635.07)"/><path d="M83.8824 91.0141 172.597 91.0141 172.597 153.33 83.8824 153.33Z" stroke="#FFFFFF" stroke-width="7.19437" stroke-linecap="square" stroke-linejoin="round" stroke-miterlimit="10" stroke-dasharray="21.5831 21.5831" stroke-opacity="1" fill="#326CE5" fill-rule="evenodd" fill-opacity="1" transform="matrix(1.00729 0 0 1 425.435 1635.07)"/><path d="M62.9613 110.203 151.676 110.203 151.676 172.519 62.9613 172.519Z" stroke="#FFFFFF" stroke-width="7.19466" stroke-linecap="butt" stroke-linejoin="round" stroke-miterlimit="10" stroke-opacity="1" fill="none" fill-rule="evenodd" transform="matrix(1.00729 0 0 1 425.435 1635.07)"/><path d="M62.3592 110.437 151.074 110.437 151.074 172.753 62.3592 172.753Z" fill="#FFFFFF" fill-rule="evenodd" fill-opacity="1" transform="matrix(1.00729 0 0 1 425.435 1635.07)"/></g></g></g><rect x="509" y="420" width="1218" height="134" stroke="#404040" stroke-width="10.3125" stroke-linecap="butt" stroke-linejoin="round" stroke-miterlimit="10" stroke-opacity="1" fill="#FFFFFF" fill-opacity="1"/><text fill="#000000" fill-opacity="1" font-family="Arial,Arial_MSFontService,sans-serif" font-style="normal" font-variant="normal" font-weight="400" font-stretch="normal" font-size="83" text-anchor="start" direction="ltr" writing-mode="lr-tb" unicode-bidi="normal" text-decoration="none" transform="matrix(1 0 0 1 925.313 517)">containerd</text><rect x="512" y="663" width="1218" height="134" stroke="#262626" stroke-width="10.3125" stroke-linecap="butt" stroke-linejoin="round" stroke-miterlimit="10" stroke-opacity="1" fill="#FFF2CC" fill-opacity="1"/><text fill="#000000" fill-opacity="1" font-family="Arial,Arial_MSFontService,sans-serif" font-style="normal" font-variant="normal" font-weight="400" font-stretch="normal" font-size="83" text-anchor="start" direction="ltr" writing-mode="lr-tb" unicode-bidi="normal" text-decoration="none" transform="matrix(1 0 0 1 802.399 760)">Starlight Daemon</text><g clip-path="url(#clip16)"><g clip-path="url(#clip17)"><g clip-path="url(#clip18)"><path d="M-86.9649 54.2479C-88.8545 54.3431-90.7058 54.8116-92.4104 55.6259L-166.719 91.1312C-170.615 92.9919-173.445 96.5107-174.407 100.692L-192.74 180.446C-193.595 184.158-192.899 188.056-190.81 191.251-190.56 191.638-190.29 192.012-190.003 192.373L-138.569 256.322C-135.872 259.674-131.783 261.626-127.46 261.625L-44.9781 261.606C-40.6559 261.609-36.5672 259.661-33.8684 256.313L17.5459 192.354C20.2443 189 21.2552 184.61 20.2925 180.427L1.93156 100.673C0.968952 96.4917-1.86084 92.9728-5.75683 91.1122L-80.0748 55.6259C-82.2189 54.6015-84.5881 54.1277-86.9649 54.2479Z" fill="#326CE5" fill-rule="nonzero" fill-opacity="1" transform="matrix(1.01491 0 0 1 2519.01 573.575)"/><path d="M-87.0048 48.4729C-88.9973 48.5772-90.9487 49.0748-92.7449 49.9364L-171.197 87.409C-175.31 89.3733-178.297 93.088-179.313 97.5018L-198.662 181.694C-199.568 185.615-198.834 189.732-196.629 193.108-196.363 193.514-196.077 193.907-195.773 194.286L-141.479 261.8C-138.632 265.338-134.316 267.398-129.752 267.397L-42.6802 267.378C-38.1176 267.381-33.8016 265.325-30.9527 261.79L23.3222 194.267C26.1679 190.729 27.2347 186.098 26.2208 181.684L6.84302 97.4828C5.82426 93.0726 2.83744 89.3618-1.27302 87.3995L-79.725 49.9269C-81.9904 48.8448-84.4937 48.3448-87.0048 48.4729ZM-86.9668 54.251C-84.59 54.1309-82.2208 54.6047-80.0767 55.6291L-5.75876 91.1154C-1.86275 92.976 0.967057 96.4949 1.92968 100.676L20.2906 180.43C21.2533 184.613 20.2424 189.003 17.5441 192.357L-33.8703 256.316C-36.5691 259.665-40.6578 261.613-44.98 261.61L-127.462 261.629C-131.785 261.629-135.874 259.678-138.571 256.326L-190.005 192.376C-190.292 192.016-190.562 191.641-190.812 191.255-192.901 188.059-193.597 184.162-192.742 180.449L-174.409 100.695C-173.447 96.514-170.617 92.9951-166.721 91.1345L-92.4123 55.6291C-90.7077 54.8148-88.8563 54.3463-86.9667 54.2511Z" fill="#FFFFFF" fill-rule="nonzero" fill-opacity="1" transform="matrix(1.01491 0 0 1 2519.01 573.575)"/><text fill="#FFFFFF" fill-opacity="1" font-family="Arial,Arial_MSFontService,sans-serif" font-style="normal" font-variant="normal" font-weight="400" font-stretch="normal" font-size="3" text-anchor="start" direction="ltr" writing-mode="lr-tb" unicode-bidi="normal" text-decoration="none" transform="matrix(12.6973 0 0 12.5108 2406.09 818)">ing</text><path d="M159.613 171.602 131.205 171.602 69.64 94.5867 51.8289 94.5867 51.8289 69.3786 80.7881 69.3786 142.379 146.393 159.613 146.393 159.613 126.458 198.645 158.984 159.613 191.537ZM128.634 112.109 142.379 94.9015 159.613 94.9015 159.613 114.837 198.645 82.3105 159.613 49.7576 159.613 69.6933 131.205 69.6933 112.974 92.5144ZM83.6211 129.186 69.64 146.708 51.8289 146.708 51.8289 171.916 80.7881 171.916 99.2812 148.78Z" fill="#FFFFFF" fill-rule="nonzero" fill-opacity="1" transform="matrix(1.01491 0 0 1 2304.4 607.338)"/></g></g></g><rect x="3269" y="665" width="720" height="133" stroke="#262626" stroke-width="10.3125" stroke-linecap="butt" stroke-linejoin="round" stroke-miterlimit="10" stroke-opacity="1" fill="#FFF2CC" fill-opacity="1"/><text fill="#000000" fill-opacity="1" font-family="Arial,Arial_MSFontService,sans-serif" font-style="normal" font-variant="normal" font-weight="400" font-stretch="normal" font-size="83" text-anchor="start" direction="ltr" writing-mode="lr-tb" unicode-bidi="normal" text-decoration="none" transform="matrix(1 0 0 1 3361.09 761)">Starlight Proxy</text><g clip-path="url(#clip19)"><g clip-path="url(#clip20)"><g clip-path="url(#clip21)"><path d="M-86.9649 54.2479C-88.8545 54.3431-90.7058 54.8116-92.4104 55.6259L-166.719 91.1312C-170.615 92.9919-173.445 96.5107-174.407 100.692L-192.74 180.446C-193.595 184.158-192.899 188.056-190.81 191.251-190.56 191.638-190.29 192.012-190.003 192.373L-138.569 256.322C-135.872 259.674-131.783 261.626-127.46 261.625L-44.9781 261.606C-40.6559 261.609-36.5672 259.661-33.8684 256.313L17.5459 192.354C20.2443 189 21.2552 184.61 20.2925 180.427L1.93156 100.673C0.968952 96.4917-1.86084 92.9728-5.75683 91.1122L-80.0748 55.6259C-82.2189 54.6015-84.5881 54.1277-86.9649 54.2479Z" fill="#326CE5" fill-rule="nonzero" fill-opacity="1" transform="matrix(1.01047 0 0 1 2824.13 573.575)"/><path d="M-87.0048 48.4729C-88.9973 48.5772-90.9487 49.0748-92.7449 49.9364L-171.197 87.409C-175.31 89.3733-178.297 93.088-179.313 97.5018L-198.662 181.694C-199.568 185.615-198.834 189.732-196.629 193.108-196.363 193.514-196.077 193.907-195.773 194.286L-141.479 261.8C-138.632 265.338-134.316 267.398-129.752 267.397L-42.6802 267.378C-38.1176 267.381-33.8016 265.325-30.9527 261.79L23.3222 194.267C26.1679 190.729 27.2347 186.098 26.2208 181.684L6.84302 97.4828C5.82426 93.0726 2.83744 89.3618-1.27302 87.3995L-79.725 49.9269C-81.9904 48.8448-84.4937 48.3448-87.0048 48.4729ZM-86.9668 54.251C-84.59 54.1309-82.2208 54.6047-80.0767 55.6291L-5.75876 91.1154C-1.86275 92.976 0.967057 96.4949 1.92968 100.676L20.2906 180.43C21.2533 184.613 20.2424 189.003 17.5441 192.357L-33.8703 256.316C-36.5691 259.665-40.6578 261.613-44.98 261.61L-127.462 261.629C-131.785 261.629-135.874 259.678-138.571 256.326L-190.005 192.376C-190.292 192.016-190.562 191.641-190.812 191.255-192.901 188.059-193.597 184.162-192.742 180.449L-174.409 100.695C-173.447 96.514-170.617 92.9951-166.721 91.1345L-92.4123 55.6291C-90.7077 54.8148-88.8563 54.3463-86.9667 54.2511Z" fill="#FFFFFF" fill-rule="nonzero" fill-opacity="1" transform="matrix(1.01047 0 0 1 2824.13 573.575)"/><text fill="#FFFFFF" fill-opacity="1" font-family="Arial,Arial_MSFontService,sans-serif" font-style="normal" font-variant="normal" font-weight="400" font-stretch="normal" font-size="3" text-anchor="start" direction="ltr" writing-mode="lr-tb" unicode-bidi="normal" text-decoration="none" transform="matrix(12.6418 0 0 12.5108 2705.01 818)">svc</text><path d="M56.236 140.882 92.6216 140.882 92.6216 166.425 56.236 166.425Z" fill="#FFFFFF" fill-rule="evenodd" fill-opacity="1" transform="matrix(1.01047 0 0 1 2611.62 607.338)"/><path d="M105.888 140.882 142.274 140.882 142.274 166.425 105.888 166.425Z" fill="#FFFFFF" fill-rule="evenodd" fill-opacity="1" transform="matrix(1.01047 0 0 1 2611.62 607.338)"/><path d="M155.541 140.882 191.926 140.882 191.926 166.425 155.541 166.425Z" fill="#FFFFFF" fill-rule="evenodd" fill-opacity="1" transform="matrix(1.01047 0 0 1 2611.62 607.338)"/><path d="M95.2541 65.16 152.908 65.16 152.908 90.7029 95.2541 90.7029Z" fill="#FFFFFF" fill-rule="evenodd" fill-opacity="1" transform="matrix(1.01047 0 0 1 2611.62 607.338)"/><path d="M124.081 90.7029 124.081 115.793 74.4547 115.793 74.4547 140.85" stroke="#FFFFFF" stroke-width="6.62031" stroke-linecap="butt" stroke-linejoin="round" stroke-miterlimit="10" stroke-opacity="1" fill="none" fill-rule="evenodd" transform="matrix(1.01047 0 0 1 2611.62 607.338)"/><path d="M124.081 90.7029 124.081 115.793 173.707 115.793 173.707 140.85" stroke="#FFFFFF" stroke-width="6.61822" stroke-linecap="butt" stroke-linejoin="round" stroke-miterlimit="10" stroke-opacity="1" fill="none" fill-rule="evenodd" transform="matrix(1.01047 0 0 1 2611.62 607.338)"/><path d="M123.977 90.7187 123.977 115.809 124.186 115.809 124.186 140.866" stroke="#FFFFFF" stroke-width="6.62031" stroke-linecap="butt" stroke-linejoin="round" stroke-miterlimit="10" stroke-opacity="1" fill="none" fill-rule="evenodd" transform="matrix(1.01047 0 0 1 2611.62 607.338)"/></g></g></g><g clip-path="url(#clip22)"><g clip-path="url(#clip23)"><g clip-path="url(#clip24)"><path d="M-94.5096 58.9542C-96.5631 59.0576-98.5751 59.5668-100.428 60.4518L-181.183 99.0374C-185.417 101.059-188.492 104.884-189.538 109.427L-209.461 196.101C-210.39 200.135-209.634 204.371-207.364 207.844-207.092 208.264-206.799 208.67-206.486 209.062L-150.591 278.56C-147.66 282.203-143.216 284.324-138.517 284.323L-48.8802 284.302C-44.183 284.306-39.7396 282.188-36.8067 278.549L19.0681 209.042C22.0006 205.397 23.0992 200.626 22.0529 196.08L2.09914 109.407C1.05301 104.863-2.02228 101.039-6.25627 99.0167L-87.0217 60.4518C-89.3519 59.3385-91.9266 58.8236-94.5096 58.9542Z" fill="#326CE5" fill-rule="nonzero" fill-opacity="1" transform="matrix(1.00729 0 0 1 3143.89 312.374)"/><path d="M-94.5529 52.6782C-96.7183 52.7916-98.8391 53.3323-100.791 54.2687L-186.049 94.9922C-190.519 97.1269-193.765 101.164-194.869 105.961L-215.897 197.457C-216.882 201.718-216.084 206.193-213.687 209.861-213.399 210.303-213.088 210.73-212.758 211.142L-153.753 284.512C-150.66 288.357-145.969 290.596-141.009 290.595L-46.3829 290.575C-41.4245 290.578-36.7341 288.343-33.6381 284.502L25.3455 211.121C28.4381 207.275 29.5974 202.243 28.4956 197.447L7.43669 105.94C6.32955 101.147 3.08361 97.1144-1.38346 94.9819L-86.6416 54.2584C-89.1035 53.0823-91.824 52.5389-94.5529 52.6782ZM-94.5117 58.9576C-91.9287 58.827-89.354 59.342-87.0238 60.4552L-6.25837 99.0202C-2.02436 101.042 1.05095 104.866 2.09709 109.41L22.0509 196.083C23.0972 200.629 21.9985 205.4 19.0661 209.045L-36.8087 278.553C-39.7416 282.192-44.1851 284.309-48.8822 284.306L-138.52 284.326C-143.218 284.327-147.662 282.206-150.593 278.563L-206.489 209.066C-206.801 208.674-207.094 208.267-207.366 207.847-209.636 204.374-210.392 200.139-209.463 196.104L-189.54 109.431C-188.494 104.887-185.419 101.063-181.185 99.0409L-100.43 60.4553C-98.5771 59.5703-96.5651 59.0612-94.5116 58.9577Z" fill="#FFFFFF" fill-rule="nonzero" fill-opacity="1" transform="matrix(1.00729 0 0 1 3143.89 312.374)"/><text fill="#FFFFFF" fill-opacity="1" font-family="Arial,Arial_MSFontService,sans-serif" font-style="normal" font-variant="normal" font-weight="400" font-stretch="normal" font-size="3" text-anchor="start" direction="ltr" writing-mode="lr-tb" unicode-bidi="normal" text-decoration="none" transform="matrix(13.6953 0 0 13.5962 2987.38 578)">deploy</text><path d="M139.022 186.698 139.022 186.698C105.811 188.269 77.5665 162.725 75.8035 129.524 74.0402 96.3228 99.4209 67.9306 132.611 65.9753 165.801 64.02 194.34 89.2358 196.487 122.414L172.597 123.96C171.3 103.922 154.064 88.6925 134.019 89.8734 113.973 91.0544 98.6444 108.202 99.7093 128.254 100.774 148.306 117.833 163.734 137.891 162.785Z" fill="#FFFFFF" fill-rule="evenodd" fill-opacity="1" transform="matrix(1.00729 0 0 1 2903.45 349.066)"/><path d="M151.401 122.485 170.401 168.991 214.267 122.485Z" fill="#FFFFFF" fill-rule="evenodd" fill-opacity="1" transform="matrix(1.00729 0 0 1 2903.45 349.066)"/></g></g></g><g clip-path="url(#clip25)"><g clip-path="url(#clip26)"><g clip-path="url(#clip27)"><path d="M-86.9647 54.2478C-88.8543 54.343-90.7057 54.8115-92.4103 55.6258L-166.719 91.1311C-170.615 92.9917-173.444 96.5106-174.407 100.692L-192.739 180.446C-193.595 184.158-192.899 188.056-190.81 191.251-190.559 191.638-190.29 192.012-190.002 192.372L-138.569 256.322C-135.872 259.674-131.783 261.626-127.459 261.625L-44.978 261.606C-40.6558 261.609-36.5671 259.661-33.8684 256.312L17.5459 192.354C20.2442 189 21.2552 184.61 20.2924 180.427L1.93156 100.673C0.96895 96.4916-1.86083 92.9727-5.75682 91.1121L-80.0747 55.6258C-82.2188 54.6014-84.5879 54.1276-86.9647 54.2478Z" fill="#326CE5" fill-rule="nonzero" fill-opacity="1" transform="matrix(1.01048 0 0 1 3333.13 565.575)"/><path d="M-87.0046 48.4728C-88.9971 48.5771-90.9486 49.0747-92.7448 49.9363L-171.197 87.4089C-175.309 89.3731-178.297 93.0879-179.313 97.5016L-198.662 181.694C-199.568 185.615-198.834 189.732-196.628 193.107-196.363 193.514-196.077 193.907-195.773 194.286L-141.479 261.799C-138.632 265.337-134.316 267.398-129.752 267.397L-42.6801 267.378C-38.1175 267.381-33.8016 265.324-30.9527 261.79L23.3221 194.267C26.1678 190.728 27.2346 186.097 26.2207 181.684L6.84301 97.4826C5.82425 93.0724 2.83744 89.3616-1.27302 87.3994L-79.7249 49.9268C-81.9903 48.8447-84.4935 48.3447-87.0046 48.4728ZM-86.9667 54.2509C-84.5899 54.1308-82.2207 54.6046-80.0766 55.629L-5.75875 91.1152C-1.86275 92.9758 0.967055 96.4947 1.92968 100.676L20.2906 180.43C21.2533 184.613 20.2423 189.003 17.544 192.357L-33.8702 256.316C-36.569 259.664-40.6577 261.612-44.9799 261.609L-127.461 261.628C-131.785 261.629-135.874 259.677-138.571 256.325L-190.004 192.376C-190.292 192.015-190.561 191.641-190.812 191.254-192.901 188.059-193.596 184.161-192.741 180.449L-174.409 100.695C-173.446 96.5138-170.616 92.995-166.72 91.1343L-92.4121 55.629C-90.7076 54.8147-88.8562 54.3462-86.9666 54.251Z" fill="#FFFFFF" fill-rule="nonzero" fill-opacity="1" transform="matrix(1.01048 0 0 1 3333.13 565.575)"/><text fill="#FFFFFF" fill-opacity="1" font-family="Arial,Arial_MSFontService,sans-serif" font-style="normal" font-variant="normal" font-weight="400" font-stretch="normal" font-size="3" text-anchor="start" direction="ltr" writing-mode="lr-tb" unicode-bidi="normal" text-decoration="none" transform="matrix(12.6419 0 0 12.5108 3214.48 810)">pod</text><path d="M78.34 88.027 123.64 74.8907 168.939 88.027 123.64 101.163Z" fill="#FFFFFF" fill-rule="evenodd" fill-opacity="1" transform="matrix(1.01048 0 0 1 3121.07 599.338)"/><path d="M78.34 93.0574 78.34 141.259 120.547 164.638 120.755 105.672Z" fill="#FFFFFF" fill-rule="evenodd" fill-opacity="1" transform="matrix(1.01048 0 0 1 3121.07 599.338)"/><path d="M168.939 93.0574 168.939 141.259 126.732 164.638 126.524 105.672Z" fill="#FFFFFF" fill-rule="evenodd" fill-opacity="1" transform="matrix(1.01048 0 0 1 3121.07 599.338)"/></g></g></g><g clip-path="url(#clip28)"><g clip-path="url(#clip29)"><g clip-path="url(#clip30)"><path d="M-86.9647 54.2478C-88.8543 54.343-90.7057 54.8115-92.4103 55.6258L-166.719 91.1311C-170.615 92.9917-173.444 96.5106-174.407 100.692L-192.739 180.446C-193.595 184.158-192.899 188.056-190.81 191.251-190.559 191.638-190.29 192.012-190.002 192.372L-138.569 256.322C-135.872 259.674-131.783 261.626-127.459 261.625L-44.978 261.606C-40.6558 261.609-36.5671 259.661-33.8684 256.312L17.5459 192.354C20.2442 189 21.2552 184.61 20.2924 180.427L1.93156 100.673C0.96895 96.4916-1.86083 92.9727-5.75682 91.1121L-80.0747 55.6258C-82.2188 54.6014-84.5879 54.1276-86.9647 54.2478Z" fill="#326CE5" fill-rule="nonzero" fill-opacity="1" transform="matrix(1.01048 0 0 1 3333.13 828.575)"/><path d="M-87.0046 48.4728C-88.9971 48.5771-90.9486 49.0747-92.7448 49.9363L-171.197 87.4089C-175.309 89.3731-178.297 93.0879-179.313 97.5016L-198.662 181.694C-199.568 185.615-198.834 189.732-196.628 193.107-196.363 193.514-196.077 193.907-195.773 194.286L-141.479 261.799C-138.632 265.337-134.316 267.398-129.752 267.397L-42.6801 267.378C-38.1175 267.381-33.8016 265.324-30.9527 261.79L23.3221 194.267C26.1678 190.728 27.2346 186.097 26.2207 181.684L6.84301 97.4826C5.82425 93.0724 2.83744 89.3616-1.27302 87.3994L-79.7249 49.9268C-81.9903 48.8447-84.4935 48.3447-87.0046 48.4728ZM-86.9667 54.2509C-84.5899 54.1308-82.2207 54.6046-80.0766 55.629L-5.75875 91.1152C-1.86275 92.9758 0.967055 96.4947 1.92968 100.676L20.2906 180.43C21.2533 184.613 20.2423 189.003 17.544 192.357L-33.8702 256.316C-36.569 259.664-40.6577 261.612-44.9799 261.609L-127.461 261.628C-131.785 261.629-135.874 259.677-138.571 256.325L-190.004 192.376C-190.292 192.015-190.561 191.641-190.812 191.254-192.901 188.059-193.596 184.161-192.741 180.449L-174.409 100.695C-173.446 96.5138-170.616 92.995-166.72 91.1343L-92.4121 55.629C-90.7076 54.8147-88.8562 54.3462-86.9666 54.251Z" fill="#FFFFFF" fill-rule="nonzero" fill-opacity="1" transform="matrix(1.01048 0 0 1 3333.13 828.575)"/><text fill="#FFFFFF" fill-opacity="1" font-family="Arial,Arial_MSFontService,sans-serif" font-style="normal" font-variant="normal" font-weight="400" font-stretch="normal" font-size="3" text-anchor="start" direction="ltr" writing-mode="lr-tb" unicode-bidi="normal" text-decoration="none" transform="matrix(12.6419 0 0 12.5108 3214.48 1073)">pod</text><path d="M78.34 88.027 123.64 74.8907 168.939 88.027 123.64 101.163Z" fill="#FFFFFF" fill-rule="evenodd" fill-opacity="1" transform="matrix(1.01048 0 0 1 3121.07 862.338)"/><path d="M78.34 93.0574 78.34 141.259 120.547 164.638 120.755 105.672Z" fill="#FFFFFF" fill-rule="evenodd" fill-opacity="1" transform="matrix(1.01048 0 0 1 3121.07 862.338)"/><path d="M168.939 93.0574 168.939 141.259 126.732 164.638 126.524 105.672Z" fill="#FFFFFF" fill-rule="evenodd" fill-opacity="1" transform="matrix(1.01048 0 0 1 3121.07 862.338)"/></g></g></g><g clip-path="url(#clip31)"><g clip-path="url(#clip32)"><g clip-path="url(#clip33)"><path d="M-94.5096 58.9542C-96.5631 59.0576-98.5751 59.5668-100.428 60.4518L-181.183 99.0374C-185.417 101.059-188.492 104.884-189.538 109.427L-209.461 196.101C-210.39 200.135-209.634 204.371-207.364 207.844-207.092 208.264-206.799 208.67-206.486 209.062L-150.591 278.56C-147.66 282.203-143.216 284.324-138.517 284.323L-48.8802 284.302C-44.183 284.306-39.7396 282.188-36.8067 278.549L19.0681 209.042C22.0006 205.397 23.0992 200.626 22.0529 196.08L2.09914 109.407C1.05301 104.863-2.02228 101.039-6.25627 99.0167L-87.0217 60.4518C-89.3519 59.3385-91.9266 58.8236-94.5096 58.9542Z" fill="#326CE5" fill-rule="nonzero" fill-opacity="1" transform="matrix(1.00729 0 0 1 3143.89 1137.37)"/><path d="M-94.5529 52.6782C-96.7183 52.7916-98.8391 53.3323-100.791 54.2687L-186.049 94.9922C-190.519 97.1269-193.765 101.164-194.869 105.961L-215.897 197.457C-216.882 201.718-216.084 206.193-213.687 209.861-213.399 210.303-213.088 210.73-212.758 211.142L-153.753 284.512C-150.66 288.357-145.969 290.596-141.009 290.595L-46.3829 290.575C-41.4245 290.578-36.7341 288.343-33.6381 284.502L25.3455 211.121C28.4381 207.275 29.5974 202.243 28.4956 197.447L7.43669 105.94C6.32955 101.147 3.08361 97.1144-1.38346 94.9819L-86.6416 54.2584C-89.1035 53.0823-91.824 52.5389-94.5529 52.6782ZM-94.5117 58.9576C-91.9287 58.827-89.354 59.342-87.0238 60.4552L-6.25837 99.0202C-2.02436 101.042 1.05095 104.866 2.09709 109.41L22.0509 196.083C23.0972 200.629 21.9985 205.4 19.0661 209.045L-36.8087 278.553C-39.7416 282.192-44.1851 284.309-48.8822 284.306L-138.52 284.326C-143.218 284.327-147.662 282.206-150.593 278.563L-206.489 209.066C-206.801 208.674-207.094 208.267-207.366 207.847-209.636 204.374-210.392 200.139-209.463 196.104L-189.54 109.431C-188.494 104.887-185.419 101.063-181.185 99.0409L-100.43 60.4553C-98.5771 59.5703-96.5651 59.0612-94.5116 58.9577Z" fill="#FFFFFF" fill-rule="nonzero" fill-opacity="1" transform="matrix(1.00729 0 0 1 3143.89 1137.37)"/><text fill="#FFFFFF" fill-opacity="1" font-family="Arial,Arial_MSFontService,sans-serif" font-style="normal" font-variant="normal" font-weight="400" font-stretch="normal" font-size="3" text-anchor="start" direction="ltr" writing-mode="lr-tb" unicode-bidi="normal" text-decoration="none" transform="matrix(13.6953 0 0 13.5962 2987.38 1403)">deploy</text><path d="M139.022 186.698 139.022 186.698C105.811 188.269 77.5665 162.725 75.8035 129.524 74.0402 96.3228 99.4209 67.9306 132.611 65.9753 165.801 64.02 194.34 89.2358 196.487 122.414L172.597 123.96C171.3 103.922 154.064 88.6925 134.019 89.8734 113.973 91.0544 98.6444 108.202 99.7093 128.254 100.774 148.306 117.833 163.734 137.891 162.785Z" fill="#FFFFFF" fill-rule="evenodd" fill-opacity="1" transform="matrix(1.00729 0 0 1 2903.45 1174.07)"/><path d="M151.401 122.485 170.401 168.991 214.267 122.485Z" fill="#FFFFFF" fill-rule="evenodd" fill-opacity="1" transform="matrix(1.00729 0 0 1 2903.45 1174.07)"/></g></g></g><g clip-path="url(#clip34)"><g clip-path="url(#clip35)"><g clip-path="url(#clip36)"><path d="M-86.9647 54.2478C-88.8543 54.343-90.7057 54.8115-92.4103 55.6258L-166.719 91.1311C-170.615 92.9917-173.444 96.5106-174.407 100.692L-192.739 180.446C-193.595 184.158-192.899 188.056-190.81 191.251-190.559 191.638-190.29 192.012-190.002 192.372L-138.569 256.322C-135.872 259.674-131.783 261.626-127.459 261.625L-44.978 261.606C-40.6558 261.609-36.5671 259.661-33.8684 256.312L17.5459 192.354C20.2442 189 21.2552 184.61 20.2924 180.427L1.93156 100.673C0.96895 96.4916-1.86083 92.9727-5.75682 91.1121L-80.0747 55.6258C-82.2188 54.6014-84.5879 54.1276-86.9647 54.2478Z" fill="#326CE5" fill-rule="nonzero" fill-opacity="1" transform="matrix(1.01048 0 0 1 2824.13 1173.58)"/><path d="M-87.0046 48.4728C-88.9971 48.5771-90.9486 49.0747-92.7448 49.9363L-171.197 87.4089C-175.309 89.3731-178.297 93.0879-179.313 97.5016L-198.662 181.694C-199.568 185.615-198.834 189.732-196.628 193.107-196.363 193.514-196.077 193.907-195.773 194.286L-141.479 261.799C-138.632 265.337-134.316 267.398-129.752 267.397L-42.6801 267.378C-38.1175 267.381-33.8016 265.324-30.9527 261.79L23.3221 194.267C26.1678 190.728 27.2346 186.097 26.2207 181.684L6.84301 97.4826C5.82425 93.0724 2.83744 89.3616-1.27302 87.3994L-79.7249 49.9268C-81.9903 48.8447-84.4935 48.3447-87.0046 48.4728ZM-86.9667 54.2509C-84.5899 54.1308-82.2207 54.6046-80.0766 55.629L-5.75875 91.1152C-1.86275 92.9758 0.967055 96.4947 1.92968 100.676L20.2906 180.43C21.2533 184.613 20.2423 189.003 17.544 192.357L-33.8702 256.316C-36.569 259.664-40.6577 261.612-44.9799 261.609L-127.461 261.628C-131.785 261.629-135.874 259.677-138.571 256.325L-190.004 192.376C-190.292 192.015-190.561 191.641-190.812 191.254-192.901 188.059-193.596 184.161-192.741 180.449L-174.409 100.695C-173.446 96.5138-170.616 92.995-166.72 91.1343L-92.4121 55.629C-90.7076 54.8147-88.8562 54.3462-86.9666 54.251Z" fill="#FFFFFF" fill-rule="nonzero" fill-opacity="1" transform="matrix(1.01048 0 0 1 2824.13 1173.58)"/><text fill="#FFFFFF" fill-opacity="1" font-family="Arial,Arial_MSFontService,sans-serif" font-style="normal" font-variant="normal" font-weight="400" font-stretch="normal" font-size="3" text-anchor="start" direction="ltr" writing-mode="lr-tb" unicode-bidi="normal" text-decoration="none" transform="matrix(12.6418 0 0 12.5108 2705.01 1418)">svc</text><path d="M56.2359 140.882 92.6214 140.882 92.6214 166.425 56.2359 166.425Z" fill="#FFFFFF" fill-rule="evenodd" fill-opacity="1" transform="matrix(1.01048 0 0 1 2611.62 1207.34)"/><path d="M105.888 140.882 142.274 140.882 142.274 166.425 105.888 166.425Z" fill="#FFFFFF" fill-rule="evenodd" fill-opacity="1" transform="matrix(1.01048 0 0 1 2611.62 1207.34)"/><path d="M155.54 140.882 191.926 140.882 191.926 166.425 155.54 166.425Z" fill="#FFFFFF" fill-rule="evenodd" fill-opacity="1" transform="matrix(1.01048 0 0 1 2611.62 1207.34)"/><path d="M95.2539 65.1599 152.908 65.1599 152.908 90.7027 95.2539 90.7027Z" fill="#FFFFFF" fill-rule="evenodd" fill-opacity="1" transform="matrix(1.01048 0 0 1 2611.62 1207.34)"/><path d="M124.081 90.7027 124.081 115.793 74.4546 115.793 74.4546 140.85" stroke="#FFFFFF" stroke-width="6.62029" stroke-linecap="butt" stroke-linejoin="round" stroke-miterlimit="10" stroke-opacity="1" fill="none" fill-rule="evenodd" transform="matrix(1.01048 0 0 1 2611.62 1207.34)"/><path d="M124.081 90.7027 124.081 115.793 173.707 115.793 173.707 140.85" stroke="#FFFFFF" stroke-width="6.61821" stroke-linecap="butt" stroke-linejoin="round" stroke-miterlimit="10" stroke-opacity="1" fill="none" fill-rule="evenodd" transform="matrix(1.01048 0 0 1 2611.62 1207.34)"/><path d="M123.976 90.7186 123.976 115.808 124.185 115.808 124.185 140.866" stroke="#FFFFFF" stroke-width="6.62029" stroke-linecap="butt" stroke-linejoin="round" stroke-miterlimit="10" stroke-opacity="1" fill="none" fill-rule="evenodd" transform="matrix(1.01048 0 0 1 2611.62 1207.34)"/></g></g></g><g clip-path="url(#clip37)"><g clip-path="url(#clip38)"><g clip-path="url(#clip39)"><path d="M-86.9647 54.2478C-88.8543 54.343-90.7057 54.8115-92.4103 55.6258L-166.719 91.1311C-170.615 92.9917-173.444 96.5106-174.407 100.692L-192.739 180.446C-193.595 184.158-192.899 188.056-190.81 191.251-190.559 191.638-190.29 192.012-190.002 192.372L-138.569 256.322C-135.872 259.674-131.783 261.626-127.459 261.625L-44.978 261.606C-40.6558 261.609-36.5671 259.661-33.8684 256.312L17.5459 192.354C20.2442 189 21.2552 184.61 20.2924 180.427L1.93156 100.673C0.96895 96.4916-1.86083 92.9727-5.75682 91.1121L-80.0747 55.6258C-82.2188 54.6014-84.5879 54.1276-86.9647 54.2478Z" fill="#326CE5" fill-rule="nonzero" fill-opacity="1" transform="matrix(1.01048 0 0 1 3256.13 1377.57)"/><path d="M-87.0046 48.4728C-88.9971 48.5771-90.9486 49.0747-92.7448 49.9363L-171.197 87.4089C-175.309 89.3731-178.297 93.0879-179.313 97.5016L-198.662 181.694C-199.568 185.615-198.834 189.732-196.628 193.107-196.363 193.514-196.077 193.907-195.773 194.286L-141.479 261.799C-138.632 265.337-134.316 267.398-129.752 267.397L-42.6801 267.378C-38.1175 267.381-33.8016 265.324-30.9527 261.79L23.3221 194.267C26.1678 190.728 27.2346 186.097 26.2207 181.684L6.84301 97.4826C5.82425 93.0724 2.83744 89.3616-1.27302 87.3994L-79.7249 49.9268C-81.9903 48.8447-84.4935 48.3447-87.0046 48.4728ZM-86.9667 54.2509C-84.5899 54.1308-82.2207 54.6046-80.0766 55.629L-5.75875 91.1152C-1.86275 92.9758 0.967055 96.4947 1.92968 100.676L20.2906 180.43C21.2533 184.613 20.2423 189.003 17.544 192.357L-33.8702 256.316C-36.569 259.664-40.6577 261.612-44.9799 261.609L-127.461 261.628C-131.785 261.629-135.874 259.677-138.571 256.325L-190.004 192.376C-190.292 192.015-190.561 191.641-190.812 191.254-192.901 188.059-193.596 184.161-192.741 180.449L-174.409 100.695C-173.446 96.5138-170.616 92.995-166.72 91.1343L-92.4121 55.629C-90.7076 54.8147-88.8562 54.3462-86.9666 54.251Z" fill="#FFFFFF" fill-rule="nonzero" fill-opacity="1" transform="matrix(1.01048 0 0 1 3256.13 1377.57)"/><text fill="#FFFFFF" fill-opacity="1" font-family="Arial,Arial_MSFontService,sans-serif" font-style="normal" font-variant="normal" font-weight="400" font-stretch="normal" font-size="3" text-anchor="start" direction="ltr" writing-mode="lr-tb" unicode-bidi="normal" text-decoration="none" transform="matrix(12.6419 0 0 12.5108 3137.48 1622)">pod</text><path d="M78.34 88.027 123.64 74.8907 168.939 88.027 123.64 101.163Z" fill="#FFFFFF" fill-rule="evenodd" fill-opacity="1" transform="matrix(1.01048 0 0 1 3044.07 1411.34)"/><path d="M78.34 93.0574 78.34 141.259 120.547 164.638 120.755 105.672Z" fill="#FFFFFF" fill-rule="evenodd" fill-opacity="1" transform="matrix(1.01048 0 0 1 3044.07 1411.34)"/><path d="M168.939 93.0574 168.939 141.259 126.732 164.638 126.524 105.672Z" fill="#FFFFFF" fill-rule="evenodd" fill-opacity="1" transform="matrix(1.01048 0 0 1 3044.07 1411.34)"/></g></g></g><text fill="#000000" fill-opacity="1" font-family="Arial,Arial_MSFontService,sans-serif" font-style="normal" font-variant="normal" font-weight="400" font-stretch="normal" font-size="83" text-anchor="start" direction="ltr" writing-mode="lr-tb" unicode-bidi="normal" text-decoration="none" transform="matrix(1 0 0 1 2622.31 260)">C</text><text fill="#000000" fill-opacity="1" font-family="Arial,Arial_MSFontService,sans-serif" font-style="normal" font-variant="normal" font-weight="400" font-stretch="normal" font-size="83" text-anchor="start" direction="ltr" writing-mode="lr-tb" unicode-bidi="normal" text-decoration="none" transform="matrix(1 0 0 1 2681.9 260)">loud</text><text fill="#000000" fill-opacity="1" font-family="Arial,Arial_MSFontService,sans-serif" font-style="normal" font-variant="normal" font-weight="400" font-stretch="normal" font-size="83" text-anchor="start" direction="ltr" writing-mode="lr-tb" unicode-bidi="normal" text-decoration="none" transform="matrix(1 0 0 1 436.548 269)">E</text><text fill="#000000" fill-opacity="1" font-family="Arial,Arial_MSFontService,sans-serif" font-style="normal" font-variant="normal" font-weight="400" font-stretch="normal" font-size="83" text-anchor="start" direction="ltr" writing-mode="lr-tb" unicode-bidi="normal" text-decoration="none" transform="matrix(1 0 0 1 491.548 269)">dge</text><path d="M2797.5 1380.5 3055.52 1536.75" stroke="#4472C4" stroke-width="6.875" stroke-linecap="butt" stroke-linejoin="miter" stroke-miterlimit="8" stroke-opacity="1" fill="none" fill-rule="evenodd"/><path d="M2497.5 734.5 2683.79 734.5" stroke="#4472C4" stroke-width="6.875" stroke-linecap="butt" stroke-linejoin="miter" stroke-miterlimit="8" stroke-opacity="1" fill="none" fill-rule="evenodd"/><path d="M2737.5 842.5 2737.5 1221.8" stroke="#4472C4" stroke-width="6.875" stroke-linecap="butt" stroke-linejoin="miter" stroke-miterlimit="8" stroke-opacity="1" fill="none" fill-rule="evenodd"/><g clip-path="url(#clip40)"><g clip-path="url(#clip41)"><g clip-path="url(#clip42)"><path d="M-105.628 65.89C-107.924 66.0056-110.172 66.5747-112.243 67.5638L-202.498 110.689C-207.231 112.949-210.668 117.223-211.837 122.301L-234.104 219.171C-235.142 223.681-234.297 228.415-231.76 232.296-231.456 232.766-231.128 233.22-230.779 233.658L-168.308 311.332C-165.032 315.403-160.066 317.774-154.814 317.773L-54.6309 317.75C-49.3811 317.754-44.4149 315.387-41.1369 311.32L21.3115 233.635C24.5889 229.562 25.8168 224.229 24.6474 219.148L2.3461 122.278C1.1769 117.2-2.26019 112.926-6.99231 110.666L-97.2597 67.5638C-99.8639 66.3196-102.742 65.744-105.628 65.89Z" fill="#326CE5" fill-rule="nonzero" fill-opacity="1" transform="matrix(1.01073 0 0 1 2562.35 106.182)"/><path d="M-105.677 58.8756C-108.097 59.0024-110.467 59.6067-112.649 60.6533L-207.938 106.168C-212.933 108.554-216.561 113.066-217.795 118.427L-241.297 220.687C-242.397 225.45-241.506 230.451-238.827 234.551-238.504 235.044-238.158 235.522-237.788 235.982L-171.842 317.984C-168.384 322.282-163.142 324.784-157.598 324.783L-51.8398 324.76C-46.298 324.764-41.0558 322.266-37.5955 317.973L28.3273 235.959C31.7838 231.661 33.0795 226.036 31.848 220.676L8.3116 118.404C7.07421 113.047 3.44639 108.54-1.54623 106.156L-96.8348 60.6417C-99.5864 59.3274-102.627 58.72-105.677 58.8756ZM-105.631 65.8939C-102.744 65.7479-99.8663 66.3234-97.262 67.5676L-6.99465 110.67C-2.26252 112.93 1.1746 117.204 2.34381 122.282L24.6452 219.152C25.8145 224.233 24.5866 229.565 21.3092 233.639L-41.1392 311.324C-44.4172 315.391-49.3833 317.757-54.6331 317.754L-154.816 317.777C-160.068 317.778-165.034 315.407-168.31 311.336L-230.781 233.662C-231.131 233.224-231.458 232.77-231.763 232.3-234.299 228.419-235.145 223.685-234.106 219.175L-211.839 122.305C-210.67 117.227-207.233 112.953-202.501 110.693L-112.245 67.5677C-110.175 66.5786-107.926 66.0096-105.631 65.894Z" fill="#FFFFFF" fill-rule="nonzero" fill-opacity="1" transform="matrix(1.01073 0 0 1 2562.35 106.182)"/><text fill="#FFFFFF" fill-opacity="1" font-family="Arial,Arial_MSFontService,sans-serif" font-style="normal" font-variant="normal" font-weight="400" font-stretch="normal" font-size="3" text-anchor="start" direction="ltr" writing-mode="lr-tb" unicode-bidi="normal" text-decoration="none" transform="matrix(15.3587 0 0 15.1958 2402.23 403)">node</text><path d="M151.839 62.2153C149.737 62.1485 91.1302 90.9638 90.3639 92.4415 88.5226 95.9925 75.1848 157.507 75.9688 158.833 76.4247 159.603 86.0313 171.778 97.3125 185.886L117.824 211.537 151.577 211.551 185.336 211.565 206.811 184.734 228.292 157.91 220.774 124.957C216.638 106.832 212.938 91.6989 212.56 91.3343 211.504 90.318 152.978 62.2527 151.839 62.216ZM154.819 76.6171 168.631 80.6224 154.819 84.6276 141.008 80.6224ZM141.008 82.1563 153.941 86.0043 153.88 103.985 141.012 96.8532ZM168.631 82.1563 168.631 96.8532 155.764 103.985 155.703 86.0043ZM135.239 106.693 149.051 110.698 135.239 114.703 121.427 110.698ZM168.802 106.693 182.614 110.698 168.802 114.703 154.99 110.698ZM121.427 112.232 134.36 116.073 134.3 134.054 121.432 126.929ZM149.051 112.232 149.051 126.929 136.183 134.054 136.122 116.073ZM154.99 112.232 167.923 116.073 167.863 134.054 154.995 126.929ZM182.614 112.232 182.614 126.929 169.746 134.054 169.685 116.073ZM130.194 135.254C134.306 135.4 131.122 139.538 135.792 141.757 140.772 144.124 141.8 138.18 144.93 142.72 148.06 147.26 142.143 146.112 142.583 151.609 143.024 157.106 148.686 155.026 146.319 160.006 143.953 164.987 141.984 159.282 137.444 162.412 132.904 165.542 137.535 169.405 132.042 169.846 126.545 170.286 130.5 165.736 125.52 163.369 120.539 161.002 119.511 166.939 116.382 162.399 113.252 157.859 119.175 159.013 118.735 153.516 118.294 148.02 112.631 150.1 114.999 145.119 117.365 140.139 119.328 145.843 123.868 142.713 128.408 139.584 123.776 135.72 129.276 135.28 129.618 135.252 129.92 135.245 130.194 135.252ZM165.69 140.767C173.035 140.973 165.912 147.866 172.619 150.868 179.327 153.87 179.717 143.968 184.766 149.308 189.814 154.648 179.904 154.484 182.524 161.35 185.144 168.216 192.426 161.49 192.219 168.836 192.011 176.182 185.119 169.057 182.118 175.765 179.116 182.473 189.018 182.864 183.678 187.912 178.338 192.96 178.508 183.05 171.642 185.67 164.776 188.29 171.505 195.572 164.156 195.365 156.811 195.159 163.934 188.266 157.227 185.264 150.52 182.262 150.122 192.164 145.074 186.824 140.026 181.484 149.936 181.654 147.316 174.788 144.695 167.923 137.414 174.649 137.621 167.302 137.829 159.957 144.72 167.074 147.722 160.367 150.724 153.659 140.822 153.268 146.162 148.22 151.503 143.172 151.338 153.082 158.204 150.462 165.07 147.842 158.341 140.56 165.69 140.767ZM130.515 144.621C126.053 144.623 122.437 148.242 122.439 152.704 122.44 157.163 126.055 160.778 130.515 160.78 134.977 160.782 138.596 157.166 138.597 152.704 138.6 148.239 134.98 144.619 130.515 144.621ZM164.923 151.924C156.005 151.921 148.775 159.151 148.778 168.069 148.778 176.985 156.008 184.211 164.923 184.208 173.836 184.207 181.061 176.982 181.062 168.069 181.065 159.154 173.839 151.925 164.923 151.924Z" fill="#FFFFFF" fill-rule="nonzero" fill-opacity="1" transform="matrix(1.01073 0 0 1 2302.75 147.192)"/></g></g></g><text fill="#000000" fill-opacity="1" font-family="Arial,Arial_MSFontService,sans-serif" font-style="normal" font-variant="normal" font-weight="400" font-stretch="normal" font-size="64" text-anchor="start" direction="ltr" writing-mode="lr-tb" unicode-bidi="normal" text-decoration="none" transform="matrix(1 0 0 1 1277.64 620)">[2]</text><text fill="#000000" fill-opacity="1" font-family="Arial,Arial_MSFontService,sans-serif" font-style="normal" font-variant="normal" font-weight="400" font-stretch="normal" font-size="64" text-anchor="start" direction="ltr" writing-mode="lr-tb" unicode-bidi="normal" text-decoration="none" transform="matrix(1 0 0 1 986.988 618)">[1]</text><path d="M958.938 562.306 958.938 667.98 952.063 667.98 952.063 562.306ZM936.489 588.074 955.5 555.484 974.511 588.074C975.468 589.714 974.914 591.819 973.274 592.775 971.634 593.732 969.529 593.178 968.573 591.538L952.531 564.038 958.469 564.038 942.428 591.538C941.471 593.178 939.366 593.732 937.727 592.776 936.087 591.819 935.533 589.714 936.489 588.074Z" fill="#4472C4" fill-rule="nonzero" fill-opacity="1"/><path d="M1261.94 557.5 1261.94 663.174 1255.06 663.174 1255.06 557.5ZM1277.51 637.406 1258.5 669.996 1239.49 637.406C1238.53 635.766 1239.09 633.662 1240.73 632.705 1242.37 631.748 1244.47 632.302 1245.43 633.942L1261.47 661.442 1255.53 661.442 1271.57 633.942C1272.53 632.302 1274.63 631.748 1276.27 632.705 1277.91 633.661 1278.47 635.766 1277.51 637.406Z" fill="#4472C4" fill-rule="nonzero" fill-opacity="1"/><text fill="#000000" fill-opacity="1" font-family="Arial,Arial_MSFontService,sans-serif" font-style="normal" font-variant="normal" font-weight="400" font-stretch="normal" font-size="64" text-anchor="start" direction="ltr" writing-mode="lr-tb" unicode-bidi="normal" text-decoration="none" transform="matrix(1 0 0 1 3924.62 903)">[7]</text><text fill="#000000" fill-opacity="1" font-family="Arial,Arial_MSFontService,sans-serif" font-style="normal" font-variant="normal" font-weight="400" font-stretch="normal" font-size="64" text-anchor="start" direction="ltr" writing-mode="lr-tb" unicode-bidi="normal" text-decoration="none" transform="matrix(1 0 0 1 3924.65 1449)">[8]</text><text fill="#000000" fill-opacity="1" font-family="Arial,Arial_MSFontService,sans-serif" font-style="normal" font-variant="normal" font-weight="400" font-stretch="normal" font-size="64" text-anchor="start" direction="ltr" writing-mode="lr-tb" unicode-bidi="normal" text-decoration="none" transform="matrix(1 0 0 1 1474.36 1125)">[3]</text><text fill="#000000" fill-opacity="1" font-family="Arial,Arial_MSFontService,sans-serif" font-style="normal" font-variant="normal" font-weight="400" font-stretch="normal" font-size="64" text-anchor="start" direction="ltr" writing-mode="lr-tb" unicode-bidi="normal" text-decoration="none" transform="matrix(1 0 0 1 1473.96 1903)">[5]</text><path d="M642.955 1207.39 329.896 1207.39 329.896 727.062 505.694 727.062 505.694 733.938 333.334 733.938 336.771 730.5 336.771 1203.96 333.334 1200.52 642.955 1200.52ZM479.926 711.489 512.516 730.5 479.926 749.511C478.286 750.468 476.181 749.914 475.225 748.274 474.268 746.634 474.822 744.529 476.462 743.572L503.962 727.531 503.962 733.469 476.462 717.428C474.822 716.471 474.268 714.366 475.225 712.726 476.181 711.086 478.286 710.533 479.926 711.489Z" fill="#4472C4" fill-rule="nonzero" fill-opacity="1"/><text fill="#000000" fill-opacity="1" font-family="Arial,Arial_MSFontService,sans-serif" font-style="normal" font-variant="normal" font-weight="400" font-stretch="normal" font-size="64" text-anchor="start" direction="ltr" writing-mode="lr-tb" unicode-bidi="normal" text-decoration="none" transform="matrix(1 0 0 1 328.315 706)">[4]</text><text fill="#000000" fill-opacity="1" font-family="Arial,Arial_MSFontService,sans-serif" font-style="normal" font-variant="normal" font-weight="400" font-stretch="normal" font-size="64" text-anchor="start" direction="ltr" writing-mode="lr-tb" unicode-bidi="normal" text-decoration="none" transform="matrix(1 0 0 1 2189.18 699)">[6]</text><path d="M652.12 1986.82 329.896 1986.82 329.896 727.062 505.694 727.062 505.694 733.938 333.333 733.938 336.771 730.5 336.771 1983.38 333.333 1979.94 652.12 1979.94ZM479.926 711.489 512.516 730.5 479.926 749.511C478.286 750.467 476.181 749.914 475.225 748.274 474.268 746.634 474.822 744.529 476.462 743.572L503.962 727.531 503.962 733.469 476.462 717.428C474.822 716.471 474.268 714.366 475.225 712.726 476.181 711.086 478.286 710.533 479.926 711.489Z" fill="#4472C4" fill-rule="nonzero" fill-opacity="1"/><g clip-path="url(#clip43)"><g clip-path="url(#clip44)"><g clip-path="url(#clip45)"><path d="M-88.9502 55.4863C-90.8829 55.5836-92.7765 56.0628-94.52 56.8957L-170.525 93.2116C-174.51 95.1147-177.404 98.7139-178.389 102.99L-197.14 184.565C-198.014 188.362-197.303 192.349-195.166 195.617-194.91 196.013-194.634 196.396-194.34 196.764L-141.733 262.174C-138.974 265.602-134.792 267.599-130.369 267.598L-46.0049 267.578C-41.584 267.582-37.402 265.589-34.6416 262.164L17.9465 196.745C20.7064 193.315 21.7404 188.824 20.7557 184.546L1.97566 102.971C0.991071 98.6945-1.90332 95.0953-5.88825 93.1922L-81.9028 56.8957C-84.0958 55.848-86.5191 55.3633-88.9502 55.4863Z" fill="#326CE5" fill-rule="nonzero" fill-opacity="1" transform="matrix(1.00958 0 0 1 836.536 1824.47)"/><path d="M-88.991 49.5794C-91.0289 49.6862-93.025 50.1951-94.8622 51.0764L-175.105 89.4044C-179.312 91.4135-182.367 95.2131-183.406 99.7276L-203.197 185.842C-204.124 189.852-203.373 194.064-201.117 197.516-200.846 197.932-200.554 198.334-200.242 198.721L-144.709 267.776C-141.797 271.395-137.382 273.502-132.714 273.501L-43.6545 273.482C-38.9878 273.485-34.5733 271.382-31.6593 267.766L23.8546 198.702C26.7652 195.083 27.8564 190.346 26.8193 185.832L6.99924 99.7082C5.95722 95.1973 2.90222 91.4018-1.30208 89.3947L-81.545 51.0667C-83.8621 49.9598-86.4225 49.4484-88.991 49.5794ZM-88.9521 55.4895C-86.5211 55.3666-84.0978 55.8512-81.9047 56.899L-5.89023 93.1954C-1.90528 95.0985 0.989133 98.6977 1.97373 102.974L20.7538 184.549C21.7385 188.827 20.7045 193.318 17.9446 196.748L-34.6435 262.167C-37.4039 265.592-41.5859 267.585-46.0068 267.582L-130.371 267.601C-134.794 267.602-138.976 265.606-141.735 262.177L-194.342 196.768C-194.636 196.399-194.912 196.016-195.168 195.621-197.305 192.352-198.016 188.366-197.142 184.568L-178.391 102.994C-177.406 98.7172-174.512 95.118-170.527 93.215L-94.5219 56.8991C-92.7784 56.0661-90.8848 55.5869-88.9521 55.4896Z" fill="#FFFFFF" fill-rule="nonzero" fill-opacity="1" transform="matrix(1.00958 0 0 1 836.536 1824.47)"/><text fill="#FFFFFF" fill-opacity="1" font-family="Arial,Arial_MSFontService,sans-serif" font-style="normal" font-variant="normal" font-weight="400" font-stretch="normal" font-size="3" text-anchor="start" direction="ltr" writing-mode="lr-tb" unicode-bidi="normal" text-decoration="none" transform="matrix(12.9191 0 0 12.7964 715.291 2074)">pod</text><path d="M80.1285 90.0367 126.462 76.6005 172.796 90.0367 126.462 103.473Z" fill="#FFFFFF" fill-rule="evenodd" fill-opacity="1" transform="matrix(1.00958 0 0 1 619.826 1859)"/><path d="M80.1285 95.1819 80.1285 144.484 123.299 168.397 123.512 108.085Z" fill="#FFFFFF" fill-rule="evenodd" fill-opacity="1" transform="matrix(1.00958 0 0 1 619.826 1859)"/><path d="M172.796 95.1819 172.796 144.484 129.626 168.397 129.412 108.085Z" fill="#FFFFFF" fill-rule="evenodd" fill-opacity="1" transform="matrix(1.00958 0 0 1 619.826 1859)"/></g></g></g></g></svg>